<svg class="icon" viewBox="0 0 1024 1024" version="1.1" xmlns="http://www.w3.org/2000/svg" p-id="1513" height="128" width="128"><path d="M51.2 512c0 254.976 205.824 460.8 460.8 460.8s460.8-205.824 460.8-460.8S766.976 51.2 512 51.2 51.2 257.024 51.2 512z" fill="#EEF8FF" p-id="1514"></path><path d="M530.432 368.64h-33.792v-61.44h33.792v61.44z m-164.864 63.488l-44.032-46.08 24.576-23.552 44.032 46.08-24.576 23.552z m291.84 3.072l-24.576-23.552 45.056-46.08 24.576 23.552-45.056 46.08z m16.384 246.784V557.056c0-90.112-72.704-163.84-162.816-163.84S348.16 466.944 348.16 557.056v125.952h-25.6V716.8h374.784v-34.816h-23.552zM499.712 491.52c-25.6 5.12-46.08 24.576-52.224 51.2v2.048c-1.024 4.096-4.096 11.264-18.432 11.264-10.24 0-14.336-7.168-15.36-13.312-1.024-3.072 0-7.168 0-10.24 8.192-34.816 34.816-62.464 68.608-72.704 2.048-1.024 4.096-1.024 6.144-1.024 7.168 0 20.48 1.024 21.504 13.312 2.048 16.384-10.24 19.456-10.24 19.456z" fill="#5555F2" p-id="1515"></path></svg>