<svg class="icon" viewBox="0 0 1024 1024" version="1.1" xmlns="http://www.w3.org/2000/svg" p-id="2082" height="128" width="128"><path d="M51.2 512c0 254.976 205.824 460.8 460.8 460.8s460.8-205.824 460.8-460.8S766.976 51.2 512 51.2 51.2 257.024 51.2 512z" fill="#FFF3F3" p-id="2083"></path><path d="M457.728 546.816h-80.896c-10.24 0-17.408-10.24-14.336-20.48l79.872-209.92c2.048-6.144 8.192-9.216 14.336-9.216h135.168c10.24 0 17.408 11.264 14.336 20.48l-46.08 114.688h88.064c13.312 0 19.456 15.36 11.264 24.576l-215.04 244.736c-10.24 12.288-29.696 2.048-25.6-13.312-1.024 0 38.912-151.552 38.912-151.552z" fill="#D34A4A" p-id="2084"></path></svg>