<?xml version="1.0" standalone="no"?><!DOCTYPE svg PUBLIC "-//W3C//DTD SVG 1.1//EN" "http://www.w3.org/Graphics/SVG/1.1/DTD/svg11.dtd"><svg t="1652322072091" class="icon" viewBox="0 0 1194 1024" version="1.1" xmlns="http://www.w3.org/2000/svg" p-id="4089" xmlns:xlink="http://www.w3.org/1999/xlink" width="233.203125" height="200"><defs><style type="text/css">@font-face { font-family: feedback-iconfont; src: url("//at.alicdn.com/t/font_1031158_u69w8yhxdu.woff2?t=1630033759944") format("woff2"), url("//at.alicdn.com/t/font_1031158_u69w8yhxdu.woff?t=1630033759944") format("woff"), url("//at.alicdn.com/t/font_1031158_u69w8yhxdu.ttf?t=1630033759944") format("truetype"); }
</style></defs><path d="M815.586 829.224a373.867 373.867 0 0 1-254.53 68.449l-12.7-1.62a405.15 405.15 0 0 1-24.124-3.75c-4.859-0.938-9.717-2.217-14.49-3.325-7.673-1.875-15.344-3.75-23.016-5.967-3.58-1.108-7.16-2.557-10.826-3.665a362.7 362.7 0 0 1-25.828-9.632l-5.625-2.557A380.175 380.175 0 0 1 414.1 852.41a382.903 382.903 0 0 1-110.643-93.254c-1.62-1.875-2.984-3.92-4.603-5.796a391.17 391.17 0 0 1-83.536-242h88.395a6.223 6.223 0 0 0 5.626-3.409 6.649 6.649 0 0 0-0.256-6.649l-148.66-227.167a6.308 6.308 0 0 0-5.37-2.813 6.308 6.308 0 0 0-5.37 2.813L1.022 501.302a6.649 6.649 0 0 0-0.256 6.564c0.938 2.216 3.24 3.58 5.626 3.58h88.48c0 107.574 32.903 207.306 88.907 289.564l1.875 3.494c5.796 8.354 12.19 16.196 18.497 24.124l6.82 9.206a470.19 470.19 0 0 0 31.71 35.29c33.584 34.266 71.602 63.078 112.773 86.093l3.324 1.96a483.395 483.395 0 0 0 36.569 17.901c3.068 1.45 6.052 2.898 9.206 4.262 10.655 4.433 21.48 8.439 32.477 12.19 5.114 1.704 10.314 3.665 15.513 5.2 9.547 2.812 19.435 5.37 29.323 7.67 6.65 1.706 13.042 3.41 19.776 4.604 2.813 0.682 5.37 1.449 8.183 1.96 9.206 1.705 18.668 2.643 27.874 3.751l10.059 1.45c16.792 1.704 33.414 2.812 50.036 2.812a491.67 491.67 0 0 0 287.006-92.742 61.97 61.97 0 0 0 14.747-85.326 59.157 59.157 0 0 0-83.962-15.6zM1098.67 511.02a514.088 514.088 0 0 0-88.395-288.967c-0.852-1.364-1.449-2.813-2.387-4.092-6.819-10.058-14.49-19.35-21.992-28.811A495.676 495.676 0 0 0 795.81 42.535c-1.96-1.023-3.836-1.96-5.967-2.813a558.243 558.243 0 0 0-35.205-13.212l-12.87-4.433a513.747 513.747 0 0 0-31.54-8.353 583.475 583.475 0 0 0-17.73-4.092c-2.898-0.682-5.626-1.449-8.61-2.046-8.012-1.449-15.854-2.045-23.867-2.983-5.37-0.682-10.826-1.62-16.452-2.216A561.312 561.312 0 0 0 603.762 0.34c-2.387 0-4.688-0.341-7.246-0.341l-1.278 0.17c-101.863 0-201.169 31.37-286.41 92.231a62.055 62.055 0 0 0-15.002 85.326 59.413 59.413 0 0 0 83.962 15.003 373.015 373.015 0 0 1 255.126-68.278l10.23 1.278a309.51 309.51 0 0 1 38.528 6.905c8.61 2.046 17.39 4.092 25.913 6.82 2.643 0.852 5.285 1.875 8.013 2.642 9.718 3.41 19.265 6.819 28.47 10.74a384.181 384.181 0 0 1 147.297 112.007 391.512 391.512 0 0 1 86.69 246.09H889.66a6.223 6.223 0 0 0-5.626 3.41 6.649 6.649 0 0 0 0.256 6.649l148.66 227.167c1.108 1.705 3.154 2.813 5.37 2.813 2.217 0 4.263-1.108 5.37-2.813l148.661-227.167a6.649 6.649 0 0 0 0.256-6.649 6.223 6.223 0 0 0-5.626-3.41l-88.31 0.086z" p-id="4090" fill="#21253a"></path></svg>